<?xml version="1.0" standalone="no"?>
<!DOCTYPE svg PUBLIC "-//W3C//DTD SVG 20010904//EN"
 "http://www.w3.org/TR/2001/REC-SVG-20010904/DTD/svg10.dtd">
<svg version="1.0" xmlns="http://www.w3.org/2000/svg"
 width="853.000000pt" height="1280.000000pt" viewBox="0 0 853.000000 1280.000000"
 preserveAspectRatio="xMidYMid meet">

<g transform="translate(0.000000,1280.000000) scale(0.100000,-0.100000)"
fill="#000000" stroke="none">
<path d="M0 6400 l0 -6400 4265 0 4265 0 0 6400 0 6400 -4265 0 -4265 0 0
-6400z m4502 4721 c14 8 18 6 18 -6 0 -12 6 -15 23 -9 35 11 87 13 87 3 0 -5
-5 -9 -12 -9 -6 0 -9 -2 -6 -5 3 -3 17 -1 31 4 18 7 28 7 33 0 3 -6 15 -8 26
-6 14 4 17 2 9 -7 -8 -10 0 -12 34 -10 25 2 50 6 57 10 8 5 9 2 5 -9 -5 -13
-1 -16 23 -13 34 4 37 -1 13 -21 -16 -13 -16 -13 7 -7 14 3 29 10 33 14 11 10
48 0 41 -11 -8 -14 23 -11 38 4 7 7 22 16 33 20 19 7 19 6 3 -7 -20 -14 -25
-31 -7 -20 6 3 14 1 18 -5 6 -8 17 -7 45 4 21 9 35 11 31 6 -8 -13 -3 -14 29
-1 21 8 26 6 26 -6 0 -8 5 -12 10 -9 9 6 14 -8 11 -28 -1 -5 3 -6 9 -2 6 3 8
11 5 16 -4 5 -4 9 -1 9 2 0 13 3 23 6 15 5 16 4 3 -6 -13 -9 -12 -11 5 -9 11
1 31 1 45 0 20 -1 22 -3 10 -11 -10 -6 -2 -7 24 -3 35 5 39 4 33 -12 -7 -16
-6 -17 17 -1 18 11 27 13 32 4 5 -7 3 -8 -6 -3 -9 5 -11 4 -6 -4 6 -9 11 -9
23 1 12 10 17 9 28 -5 7 -10 26 -17 44 -17 17 0 31 -5 31 -11 0 -8 5 -8 15 1
12 10 18 10 32 -1 10 -8 24 -18 31 -24 7 -5 19 -16 27 -22 7 -7 17 -13 22 -13
11 0 61 -47 93 -88 14 -18 31 -32 38 -32 7 0 10 -4 7 -10 -3 -5 6 -22 22 -36
21 -19 23 -24 9 -19 -16 4 -14 0 7 -19 25 -23 32 -38 28 -59 -1 -5 3 -6 9 -2
5 3 10 1 10 -4 0 -6 6 -11 14 -11 8 0 18 -5 22 -11 4 -8 -1 -9 -17 -4 -13 3
-19 3 -13 -2 6 -4 14 -18 18 -31 4 -12 12 -20 17 -17 5 4 9 1 9 -4 0 -6 -6
-11 -12 -11 -7 0 2 -9 20 -20 34 -21 45 -38 13 -20 -26 14 -31 13 -25 -5 4 -8
12 -15 19 -15 8 0 10 -9 7 -26 -3 -17 -1 -25 6 -21 5 4 12 0 16 -8 3 -8 1 -15
-4 -15 -6 0 -10 -4 -10 -10 0 -5 10 -9 23 -7 16 1 21 -3 19 -15 -1 -9 2 -19 8
-23 5 -3 10 2 10 11 0 10 3 15 6 12 11 -11 11 -43 1 -56 -7 -9 -6 -11 5 -7 16
6 45 -21 34 -32 -3 -3 -6 -1 -6 6 0 7 -5 9 -11 6 -10 -7 56 -59 74 -60 11 0
10 -19 -1 -23 -6 -2 -17 7 -26 20 -12 17 -16 18 -16 6 0 -17 41 -48 65 -48 8
0 14 -3 13 -7 -2 -5 18 -28 43 -53 25 -25 31 -33 14 -17 -17 15 -34 27 -38 27
-11 0 13 -54 36 -79 20 -22 17 -21 -20 5 -22 16 -39 32 -36 36 2 5 -5 8 -17 8
-17 0 -10 -10 34 -46 34 -27 56 -53 56 -65 0 -11 11 -24 25 -31 14 -6 32 -22
41 -36 17 -26 6 -24 -28 6 -12 10 -18 11 -18 3 0 -14 -21 -3 -59 29 -20 17
-22 22 -10 37 10 12 10 14 2 9 -8 -4 -13 -2 -13 4 0 6 -5 8 -10 5 -6 -4 -8
-11 -5 -16 4 -5 2 -9 -4 -9 -6 0 -7 -7 -4 -17 4 -10 2 -14 -4 -10 -6 4 -10 1
-9 -7 2 -13 16 -29 50 -56 19 -15 19 -14 2 12 -12 18 -14 28 -6 33 6 4 14 4
17 1 4 -3 0 -6 -8 -6 -8 0 -6 -5 7 -15 12 -8 32 -12 45 -10 20 4 27 -1 39 -28
22 -51 22 -53 8 -37 -7 8 -22 22 -33 30 -18 14 -19 14 -7 -2 7 -9 14 -30 14
-46 1 -21 5 -29 14 -25 8 3 11 10 8 17 -3 6 2 2 10 -8 20 -25 20 -37 0 -29
-14 5 -15 3 -6 -14 6 -11 18 -25 26 -33 9 -7 16 -17 16 -22 0 -5 -10 0 -22 11
-21 21 -39 20 -37 -2 0 -9 2 -9 6 0 3 8 13 2 29 -17 28 -33 24 -62 -4 -33 -9
10 -14 14 -9 9 4 -6 7 -18 7 -28 0 -10 5 -18 10 -18 6 0 10 -6 10 -14 0 -7 7
-19 15 -26 8 -7 15 -17 15 -23 0 -6 -7 -1 -16 11 -14 21 -17 22 -28 7 -11 -15
-12 -15 -13 2 -1 28 -12 65 -19 72 -4 3 -4 -3 0 -14 4 -11 4 -16 0 -12 -10 10
-33 49 -40 69 -8 23 -34 32 -31 10 1 -9 6 -23 10 -29 5 -7 5 -18 1 -25 -4 -6
-3 -8 3 -5 6 4 15 -5 22 -19 6 -14 15 -22 21 -19 17 11 28 -29 15 -58 -10 -24
-13 -26 -23 -14 -7 8 -10 23 -6 33 5 18 5 18 -6 1 -9 -14 -9 -22 -1 -30 14
-14 14 -30 0 -21 -7 4 -4 -7 7 -24 10 -17 20 -29 22 -27 13 13 32 -53 27 -92
-3 -27 -1 -42 5 -38 5 3 7 0 5 -8 -3 -7 4 -19 17 -25 13 -7 31 -26 40 -43 10
-16 13 -27 8 -24 -14 9 -12 -9 2 -23 6 -6 9 -14 6 -17 -3 -3 -18 15 -33 40
-37 58 -45 49 -13 -13 19 -37 23 -53 15 -67 -7 -13 -6 -16 3 -10 8 5 11 3 8
-6 -3 -8 6 -27 18 -42 22 -26 31 -47 19 -47 -9 0 -70 95 -67 106 1 6 -4 11
-13 11 -12 0 -12 -4 0 -26 8 -14 21 -42 30 -61 l16 -35 -30 35 c-17 19 -31 31
-31 26 0 -4 11 -21 25 -37 13 -16 22 -36 19 -44 -4 -8 -1 -15 5 -15 6 0 11 -5
11 -11 0 -5 -5 -7 -12 -3 -8 5 -9 -3 -5 -29 4 -29 3 -35 -9 -30 -10 4 -12 0
-8 -11 3 -9 10 -16 15 -16 5 0 9 -8 9 -18 0 -10 6 -24 13 -31 10 -11 9 -12 -1
-6 -7 4 -17 17 -22 29 -7 17 -9 18 -9 3 -1 -10 6 -30 15 -45 16 -26 16 -26
-12 3 -20 21 -25 24 -20 10 5 -11 11 -28 13 -37 3 -10 10 -18 15 -18 5 0 6 -5
2 -11 -3 -6 3 -24 15 -40 13 -18 17 -29 9 -29 -9 0 -9 -3 0 -12 7 -7 13 -21
13 -32 1 -17 2 -18 6 -3 2 9 9 17 14 17 5 0 9 11 9 24 0 14 5 28 11 32 6 4 9
20 6 39 -5 29 -3 32 15 27 15 -4 19 -2 14 7 -5 7 2 20 16 32 21 19 22 21 5 33
-21 16 -22 30 -1 61 14 21 14 26 0 47 -14 22 -14 24 3 25 11 1 22 -5 25 -14 5
-13 4 -14 -9 -3 -8 7 -15 8 -15 2 0 -13 29 -36 37 -29 3 4 14 2 24 -4 11 -5
19 -7 19 -3 0 14 -42 64 -50 59 -11 -7 -51 45 -44 56 3 5 -2 6 -10 3 -9 -3
-16 -1 -16 5 0 6 2 11 4 11 2 0 11 3 19 6 13 5 31 -27 28 -49 -1 -5 3 -6 9 -2
5 3 28 -13 49 -35 l40 -42 67 52 c60 46 72 51 103 46 41 -6 96 -56 117 -106
54 -125 62 -345 21 -550 -14 -69 -28 -150 -32 -180 -20 -158 -74 -327 -166
-515 -50 -102 -197 -145 -277 -81 -15 11 -37 26 -49 33 -19 11 -21 9 -27 -20
-3 -18 -8 -70 -11 -117 -4 -47 -8 -92 -10 -100 -2 -8 -7 -85 -10 -170 -9 -268
-24 -397 -61 -528 -22 -80 -56 -162 -67 -162 -5 0 -6 -8 -2 -17 3 -10 8 -56
10 -102 2 -45 7 -86 12 -90 4 -4 61 -47 125 -95 161 -122 175 -137 253 -277
105 -191 110 -199 149 -273 53 -98 100 -170 144 -219 21 -23 49 -58 64 -77 14
-19 58 -71 98 -115 51 -56 86 -107 117 -172 l45 -91 -13 -59 c-7 -32 -14 -78
-15 -103 -2 -25 -5 -75 -7 -113 -5 -80 -26 -115 -117 -196 l-60 -54 0 -76 c0
-206 -49 -731 -71 -773 -14 -26 -28 -23 -95 20 -307 199 -579 361 -634 377
-14 4 -29 11 -35 15 -25 19 -255 111 -402 160 l-161 54 -19 -21 c-29 -33 -178
-132 -234 -153 -61 -24 -281 -73 -306 -68 -10 2 25 12 77 22 249 46 367 115
530 309 182 216 449 567 487 642 9 17 35 55 58 85 76 100 174 273 223 395 52
131 92 305 75 327 -6 7 -13 30 -16 51 -3 20 -13 44 -21 53 -9 8 -16 24 -16 34
0 10 -7 20 -15 24 -8 3 -15 16 -15 29 0 31 -41 92 -62 92 -21 0 -103 82 -112
113 -11 34 -26 26 -22 -10 3 -18 5 -72 7 -120 2 -84 18 -249 37 -388 13 -94
-9 -262 -39 -295 -5 -5 -9 -18 -9 -30 0 -39 -28 -100 -66 -143 -22 -25 -42
-61 -47 -80 -9 -45 -51 -100 -84 -113 -17 -6 -23 -14 -19 -24 4 -10 -3 -20
-19 -27 -14 -6 -25 -15 -25 -20 0 -17 -30 -39 -42 -32 -10 5 -10 4 -1 -6 13
-15 -4 -63 -19 -54 -5 3 -12 -3 -15 -15 -3 -11 -10 -18 -16 -14 -6 4 -8 0 -4
-10 4 -12 0 -18 -18 -23 -13 -3 -28 -18 -35 -34 -12 -29 -35 -44 -51 -35 -5 4
-7 0 -5 -7 2 -7 -14 -29 -37 -48 -22 -19 -37 -28 -33 -20 5 8 -4 3 -18 -13
-15 -15 -31 -25 -36 -22 -8 5 -25 -23 -22 -38 1 -4 -2 -6 -6 -5 -10 4 -88 -72
-85 -83 2 -5 -7 -11 -20 -14 -12 -4 -33 -21 -47 -40 -14 -18 -28 -31 -32 -28
-5 2 -8 1 -8 -4 0 -11 -49 -33 -72 -33 -10 0 -18 -5 -18 -11 0 -7 10 -9 28 -5
22 5 24 4 9 -4 -9 -6 -32 -12 -50 -14 -46 -5 -78 -16 -72 -26 5 -9 -24 -24
-41 -21 -6 0 -17 -6 -24 -14 -14 -17 -35 -21 -25 -5 11 18 -10 10 -28 -10 -9
-11 -24 -20 -32 -20 -8 0 -15 -5 -15 -11 0 -6 -7 -9 -15 -5 -8 3 -31 -2 -51
-10 -20 -8 -38 -13 -41 -10 -8 7 20 32 44 40 12 4 24 13 27 21 5 13 1 13 -31
0 -19 -8 -37 -15 -39 -15 -2 0 -10 -13 -19 -29 -13 -26 -17 -28 -39 -18 -29
14 -24 31 6 21 26 -8 45 18 20 28 -13 5 -9 8 16 13 l33 8 -27 13 c-15 8 -36
12 -48 9 -12 -3 -16 -2 -9 1 7 3 9 12 6 20 -3 8 0 14 7 14 6 0 8 5 5 10 -3 6
1 10 9 10 9 0 16 5 16 11 0 7 -10 9 -26 5 l-26 -7 26 26 c31 31 31 31 5 46
-17 9 -23 8 -30 -2 -4 -7 -11 -10 -15 -6 -4 4 1 16 10 26 21 23 14 38 -22 53
-22 9 -24 12 -9 15 21 5 23 23 2 23 -8 0 -15 5 -15 10 0 6 6 10 13 10 8 0 7 3
-3 10 -12 7 -8 12 19 21 31 11 32 13 17 25 -10 7 -15 17 -12 23 3 5 -1 11 -11
13 -15 3 -15 4 0 20 16 15 16 17 -1 21 -14 4 -14 6 6 12 27 9 29 25 2 25 -11
0 -20 5 -20 10 0 6 7 10 15 10 8 0 15 5 15 10 0 6 -5 10 -11 10 -6 0 -8 9 -4
21 5 13 3 19 -3 15 -5 -3 -12 1 -16 9 -3 8 -15 15 -26 15 -12 0 -19 4 -15 9 3
5 -15 27 -40 47 -25 21 -45 44 -45 51 0 7 -6 13 -14 13 -8 0 -18 5 -22 12 -5
8 -2 9 12 4 13 -5 9 3 -13 26 -18 19 -33 39 -33 45 0 7 -10 19 -22 27 -21 15
-14 22 15 17 14 -2 7 18 -10 28 -10 6 -13 11 -8 11 6 1 1 5 -10 10 -20 9 -19
9 2 15 21 7 21 8 6 24 -16 15 -15 16 4 19 18 3 20 7 13 37 -4 19 -5 34 -1 33
17 -2 21 4 12 20 -9 16 -6 18 18 14 16 -2 32 1 35 7 4 6 0 11 -11 11 -23 0 32
30 56 30 24 1 55 27 39 33 -7 3 -4 6 8 6 25 1 84 29 84 40 0 5 12 7 27 5 31
-3 73 21 51 29 -7 3 -3 6 9 6 12 1 25 6 29 12 3 6 18 8 33 5 14 -3 20 -3 14 0
-7 3 -13 10 -13 15 0 6 5 7 11 4 13 -8 71 14 64 25 -7 11 14 26 58 39 20 7 37
16 37 19 0 12 81 43 92 36 7 -4 8 -2 4 5 -11 17 12 40 34 34 11 -3 20 0 20 6
0 7 9 9 25 5 19 -5 25 -2 25 10 0 9 7 16 15 16 8 0 15 5 15 11 0 5 5 7 11 4 5
-4 18 3 28 14 10 12 28 21 40 21 11 0 21 5 21 11 0 5 3 8 8 6 4 -3 36 17 72
44 35 27 70 49 78 49 7 0 10 5 7 10 -3 6 -3 10 2 10 4 0 24 14 43 30 19 16 39
30 43 30 5 0 6 4 3 8 -6 10 77 82 93 82 6 0 11 5 11 11 0 7 24 42 53 78 72 91
102 133 110 154 3 9 11 17 16 17 10 0 31 33 93 144 39 70 52 111 21 66 -9 -14
-20 -27 -24 -30 -3 -3 -9 -15 -13 -28 -4 -12 -12 -20 -17 -17 -5 4 -6 -2 -2
-11 5 -13 3 -16 -10 -11 -19 7 -80 -39 -72 -54 4 -5 -2 -6 -11 -2 -10 3 -15 2
-12 -3 6 -9 -8 -26 -27 -35 -5 -2 -9 -7 -8 -11 1 -3 -4 -12 -12 -18 -12 -10
-15 -9 -15 4 0 16 -2 16 -15 2 -9 -8 -21 -29 -26 -46 -6 -16 -15 -27 -20 -24
-5 3 -36 -22 -69 -55 -58 -59 -78 -74 -65 -48 4 6 0 4 -8 -5 -8 -10 -19 -18
-26 -18 -6 0 -11 -5 -11 -11 0 -6 -7 -9 -15 -5 -9 3 -15 0 -15 -9 0 -8 -3 -14
-7 -13 -12 3 -71 -30 -80 -45 -13 -19 -155 -111 -199 -127 -23 -9 -24 -8 -18
18 l5 27 -21 -28 c-12 -15 -26 -25 -31 -21 -5 3 -9 1 -9 -5 0 -14 -103 -71
-133 -73 -14 -1 -24 -5 -21 -9 2 -4 -6 -11 -18 -15 -13 -4 -34 -15 -49 -26
-32 -24 -100 -41 -113 -28 -13 13 -29 13 -21 1 10 -17 -27 -30 -54 -20 -13 6
-31 7 -38 5 -8 -3 -12 -2 -9 2 3 5 -9 9 -27 10 -18 1 -49 2 -69 3 -21 1 -38 6
-38 11 0 4 -6 8 -14 8 -8 0 -16 5 -18 12 -3 9 -11 9 -35 -1 -18 -7 -45 -10
-67 -6 -21 4 -41 3 -49 -3 -14 -12 -89 -12 -97 -1 -3 4 -30 9 -61 12 -57 4
-99 28 -99 56 0 17 -29 40 -51 41 -18 0 -21 30 -4 43 6 6 6 10 -2 14 -14 5
-18 25 -5 20 7 -2 12 6 12 21 0 5 -13 9 -30 9 -16 0 -26 -5 -23 -10 3 -5 -1
-13 -8 -18 -23 -14 -32 -10 -26 11 6 22 -33 73 -40 52 -3 -6 -9 -10 -13 -7 -5
3 -6 13 -3 22 4 11 3 14 -5 9 -7 -4 -12 -1 -12 9 0 9 -12 18 -31 22 -36 7 -49
31 -26 48 21 15 22 29 3 22 -9 -4 -17 2 -21 14 -4 10 -12 19 -19 19 -14 0 -19
37 -5 45 5 4 9 18 9 33 1 23 2 25 11 9 5 -9 8 -21 5 -26 -9 -14 4 -41 19 -41
23 0 84 62 96 97 6 18 17 33 24 33 8 0 19 8 24 18 9 14 12 15 20 3 7 -12 13
-12 40 0 33 15 39 25 19 31 -7 3 -9 11 -4 24 5 11 10 14 13 7 3 -8 12 -9 28
-3 12 5 26 6 29 3 3 -4 6 3 6 15 0 13 6 22 15 22 8 0 15 5 15 11 0 6 -7 9 -14
6 -17 -7 -31 26 -20 44 9 15 65 -47 58 -65 -3 -7 2 -16 11 -20 9 -3 18 0 21 9
8 20 24 19 24 -1 0 -8 5 -12 10 -9 8 5 8 11 0 20 -8 10 -7 15 2 19 7 3 0 4
-17 2 -16 -1 -24 -1 -17 1 6 3 12 14 12 26 1 20 2 21 14 5 14 -19 19 -17 84
44 13 12 36 21 53 21 21 0 29 5 29 19 0 14 -8 18 -40 18 -38 0 -52 12 -30 25
6 3 10 0 10 -7 1 -9 5 -7 14 4 10 13 15 15 24 6 16 -16 15 -7 -6 49 l-18 48
28 27 c15 15 28 24 28 21 0 -3 8 1 18 10 10 9 33 20 50 23 18 4 32 11 32 16 0
6 7 8 15 4 8 -3 15 0 15 5 0 6 9 9 20 6 15 -4 22 1 26 18 4 16 13 23 30 23 13
0 24 -5 24 -11 0 -6 3 -7 8 -3 4 4 7 12 7 17 0 12 5 12 35 1 33 -13 93 -4 86
13 -3 8 6 15 23 18 15 3 42 21 60 39 27 27 32 29 29 13 -2 -14 3 -21 20 -23
15 -2 22 2 22 13 0 9 9 19 20 22 11 3 20 10 20 15 0 5 4 7 8 4 4 -2 17 9 27
25 11 16 26 29 33 29 6 0 12 7 12 15 0 8 6 15 14 15 8 0 16 4 18 9 10 28 93
81 143 91 51 11 55 13 55 40 0 20 -7 33 -22 41 -13 7 -25 15 -28 18 -3 3 -19
16 -37 29 -32 22 -32 22 -51 2 -22 -24 -99 -39 -167 -33 -49 4 -452 4 -507 0
-16 -1 -28 -5 -28 -8 0 -11 -37 -12 -135 -4 -38 3 -122 7 -185 9 -118 3 -180
21 -180 51 0 7 -6 15 -12 18 -7 2 2 7 20 11 18 4 30 11 27 16 -3 5 0 12 7 16
8 5 6 10 -8 15 -18 7 -18 8 2 8 12 1 24 7 27 15 4 9 14 12 25 9 11 -2 38 5 60
16 22 11 43 17 46 13 4 -3 11 0 16 8 8 12 10 12 10 1 0 -9 4 -10 13 -4 6 5 30
11 51 12 40 2 82 18 72 28 -3 3 -13 0 -23 -8 -12 -10 -15 -10 -9 -1 4 7 3 19
-3 26 -13 16 -11 57 4 71 6 6 27 19 47 29 21 10 35 23 32 27 -3 5 1 11 8 14 7
2 27 10 43 16 48 19 78 20 71 3 -6 -15 5 -19 18 -7 4 4 21 8 39 9 18 0 49 9
70 19 44 21 103 73 93 82 -3 4 -11 2 -17 -4 -6 -6 -28 -7 -56 -3 -55 9 -92 1
-164 -32 -140 -64 -144 -66 -151 -55 -5 8 -10 8 -20 0 -10 -9 -27 -7 -66 7
-29 11 -59 17 -67 14 -7 -3 -16 0 -20 5 -3 6 -10 9 -15 6 -5 -3 -15 3 -22 13
-7 10 -21 21 -30 25 -10 3 -15 12 -12 21 3 8 -1 16 -12 18 -10 1 -18 12 -20
23 -1 11 -9 37 -17 59 -11 29 -12 49 -5 80 5 22 10 61 11 86 1 30 6 44 15 42
18 -3 14 11 -9 31 -19 16 -19 20 -6 35 16 18 20 72 5 72 -5 0 -5 7 1 18 5 9 7
45 6 80 -2 34 0 62 3 62 6 0 9 50 15 300 0 30 -2 73 -7 95 -4 22 -9 64 -11 94
-2 33 -9 59 -17 65 -8 6 -13 17 -11 24 3 6 -1 12 -7 12 -7 0 -10 6 -7 13 3 7
-4 19 -15 26 -17 11 -18 15 -7 22 12 8 11 11 -4 20 -12 7 -16 17 -11 31 5 17
3 20 -14 16 -15 -4 -19 -2 -15 8 3 8 1 14 -5 14 -6 0 -9 16 -7 36 2 31 0 35
-17 31 -11 -3 -21 0 -25 9 -6 17 -24 19 -22 2 4 -31 -2 -37 -36 -36 -20 1 -34
6 -32 11 2 6 -8 22 -23 36 -14 14 -26 37 -27 51 -1 35 -54 114 -65 98 -6 -10
-8 -8 -8 4 0 9 -4 20 -10 23 -5 3 -3 -13 5 -36 16 -45 20 -79 4 -41 -5 15 -13
20 -21 16 -9 -6 -9 -9 0 -12 7 -2 12 -8 12 -14 0 -6 -6 -5 -15 2 -11 10 -12
16 -4 26 8 10 7 17 -5 30 -9 8 -14 19 -12 23 3 4 -4 12 -15 19 -12 8 -19 9
-19 1 0 -5 -5 -7 -11 -4 -6 4 -8 14 -5 22 3 8 1 11 -4 8 -6 -3 -10 -2 -10 3 0
5 -12 14 -27 21 -28 13 -28 13 -9 -8 11 -12 15 -21 11 -21 -4 0 0 -9 10 -20
21 -23 9 -26 -19 -5 -10 7 -15 18 -12 23 7 11 -42 35 -55 27 -5 -4 -9 -2 -9 4
0 6 -6 8 -14 5 -8 -3 -17 -1 -21 5 -3 6 -18 11 -32 11 -21 0 -24 2 -13 15 8 9
9 15 2 15 -6 0 -14 -4 -17 -10 -3 -5 -14 -10 -23 -9 -12 0 -13 2 -3 6 11 5 11
7 0 14 -11 6 -9 9 7 9 41 0 50 33 25 94 -6 16 -9 36 -6 44 3 9 0 12 -9 9 -9
-4 -12 0 -9 13 3 13 11 16 26 12 21 -5 21 -5 5 12 -10 9 -23 14 -29 10 -13 -7
-12 -6 16 49 10 20 22 37 27 37 4 0 8 7 8 15 0 9 -9 15 -25 15 -26 0 -34 15
-12 24 8 3 6 9 -7 20 -11 9 -14 16 -8 16 15 0 16 27 0 36 -8 5 -9 2 -5 -9 3
-10 2 -17 -4 -17 -7 0 -8 12 -4 30 5 25 3 30 -12 31 -13 0 -14 2 -3 6 33 10
60 27 60 36 0 5 -7 4 -15 -3 -17 -14 -35 -5 -35 18 0 15 2 15 10 2 5 -8 10
-12 10 -7 0 4 -6 16 -12 27 -10 15 -10 22 0 32 9 9 12 8 12 -7 1 -20 1 -20 15
-1 19 25 19 37 1 30 -9 -3 -15 4 -18 20 -3 14 -2 23 3 21 4 -3 10 -1 13 4 4 5
2 12 -4 16 -5 3 -10 17 -10 31 0 13 -4 24 -10 24 -5 0 -10 5 -10 12 0 9 3 9
12 0 19 -19 30 -14 18 7 -5 11 -10 30 -10 43 -1 21 -2 20 -14 -7 -10 -23 -15
-26 -20 -15 -8 19 -4 48 11 76 15 25 6 64 -14 64 -8 0 -12 -4 -9 -9 3 -5 -5
-8 -18 -7 l-24 1 24 24 c13 13 24 28 24 32 0 5 5 9 11 9 6 0 9 -9 6 -20 -3
-11 -1 -20 4 -20 5 0 9 7 9 15 0 25 22 64 39 68 9 3 0 6 -19 7 -31 3 -30 4 15
10 l50 7 -42 1 c-39 2 -81 27 -68 40 3 4 10 0 15 -8 6 -9 10 -10 10 -3 0 6 9
15 21 18 24 8 59 40 59 55 0 6 13 13 30 16 16 4 34 12 40 19 9 11 6 12 -12 8
-22 -4 -22 -4 -4 11 18 14 21 14 39 -1 18 -17 18 -16 14 7 -2 14 -2 21 0 15 5
-13 53 -36 53 -25 0 5 -9 15 -21 23 -13 10 -17 17 -10 22 6 3 9 11 6 16 -4 5
-2 9 3 9 4 0 14 16 22 35 8 19 17 35 21 35 4 0 9 11 11 25 3 13 1 22 -3 19
-11 -6 -11 3 -3 44 4 19 11 29 19 26 7 -3 16 -1 20 5 3 6 10 11 15 11 12 0
-15 -51 -32 -61 -8 -5 -1 -8 19 -6 17 1 30 4 28 7 -1 3 6 23 17 45 10 22 16
32 14 23 -7 -24 6 -23 21 1 9 14 21 19 43 16 21 -3 33 1 37 10 3 8 9 15 15 15
5 0 6 -5 2 -12 -5 -8 -2 -9 11 -4 15 5 16 4 5 -9 -17 -20 -1 -19 22 2 14 13
18 13 18 2 0 -8 3 -10 8 -4 4 6 16 17 26 25 18 14 19 13 13 -4 -6 -16 -5 -17
8 -6 8 7 21 10 29 7 7 -3 18 -1 24 5 6 6 25 13 44 17 18 4 32 13 31 19 -2 6 3
9 11 6 7 -3 19 2 26 11 14 16 35 21 25 5 -3 -5 1 -10 9 -10 8 0 18 5 21 10 4
6 15 8 26 5 10 -4 33 1 51 11 61 32 67 34 83 28 8 -3 22 -3 31 0 14 5 14 9 3
23 -13 16 -12 16 10 0 18 -12 29 -13 43 -6z m-832 -295 c0 -3 -4 -8 -10 -11
-5 -3 -10 -1 -10 4 0 6 5 11 10 11 6 0 10 -2 10 -4z m-33 -82 c-3 -3 -12 -4
-19 -1 -8 3 -5 6 6 6 11 1 17 -2 13 -5z m-222 -234 c3 -5 1 -10 -4 -10 -6 0
-11 5 -11 10 0 6 2 10 4 10 3 0 8 -4 11 -10z m25 -30 c0 -5 -2 -10 -4 -10 -3
0 -8 5 -11 10 -3 6 -1 10 4 10 6 0 11 -4 11 -10z m-30 -5 c0 -2 -10 -10 -22
-16 -21 -11 -22 -11 -9 4 13 16 31 23 31 12z m2554 -29 c7 3 13 -2 13 -10 0
-11 -5 -12 -23 -4 -13 6 -20 16 -17 21 5 8 8 7 10 0 3 -7 10 -10 17 -7z m-4
-31 c20 -24 6 -28 -15 -5 -10 11 -13 20 -8 20 6 0 16 -7 23 -15z m-2925 -83
c-3 -3 -11 0 -18 7 -9 10 -8 11 6 5 10 -3 15 -9 12 -12z m3005 -8 c0 -2 -9 0
-20 6 -11 6 -20 13 -20 16 0 2 9 0 20 -6 11 -6 20 -13 20 -16z m6 -50 c1 -9
-1 -13 -4 -9 -4 4 -7 10 -7 13 0 4 -4 14 -9 22 -7 12 -6 13 4 3 8 -7 15 -20
16 -29z m49 -32 c-6 -8 -32 11 -32 23 0 12 4 11 17 -3 10 -9 16 -18 15 -20z
m-3195 -24 c7 -20 9 -20 9 -4 1 15 4 16 15 7 8 -7 12 -21 9 -31 -4 -15 0 -20
16 -20 11 0 21 -5 21 -11 0 -6 -7 -8 -16 -5 -14 5 -15 4 -4 -9 10 -12 10 -15
-1 -15 -10 -1 -9 -4 4 -14 18 -14 24 -32 7 -21 -6 3 -7 -1 -4 -9 4 -9 -1 -18
-10 -22 -9 -3 -13 -10 -10 -16 3 -5 15 -1 26 9 20 18 21 18 7 -4 -7 -12 -21
-21 -30 -20 -10 1 -16 4 -13 8 2 4 -1 11 -7 15 -8 4 -7 9 2 15 12 7 11 9 -1 9
-11 1 -10 4 5 16 20 16 20 16 -2 9 -15 -4 -23 -2 -23 6 0 7 -3 10 -6 7 -3 -4
-1 -16 6 -27 9 -18 8 -21 -9 -21 -11 0 -22 6 -25 13 -3 6 -3 1 0 -12 4 -17 3
-21 -6 -16 -6 4 -10 18 -7 31 3 16 0 24 -10 24 -12 0 -12 4 1 22 21 30 21 49
-1 41 -17 -6 -17 -6 -1 10 9 9 21 17 27 17 6 0 11 8 11 17 0 13 -3 14 -12 5
-17 -17 -33 -15 -18 3 18 22 39 18 50 -7z m-88 -120 c-7 -7 -12 -8 -12 -2 0
14 12 26 19 19 2 -3 -1 -11 -7 -17z m3423 -108 c3 -6 -1 -7 -9 -4 -18 7 -21
14 -7 14 6 0 13 -4 16 -10z m65 -120 c0 -5 -2 -10 -4 -10 -3 0 -8 5 -11 10 -3
6 -1 10 4 10 6 0 11 -4 11 -10z m-2880 -50 c0 -5 -4 -10 -10 -10 -5 0 -10 5
-10 10 0 6 5 10 10 10 6 0 10 -4 10 -10z m-5 -30 c3 -5 2 -10 -4 -10 -5 0 -13
5 -16 10 -3 6 -2 10 4 10 5 0 13 -4 16 -10z m2785 -121 c0 -6 -4 -7 -10 -4 -5
3 -10 11 -10 16 0 6 5 7 10 4 6 -3 10 -11 10 -16z m-2770 -19 c0 -5 -4 -10
-10 -10 -5 0 -10 5 -10 10 0 6 5 10 10 10 6 0 10 -4 10 -10z m2934 -57 c10
-25 3 -23 -17 3 -13 18 -14 22 -3 18 8 -3 17 -13 20 -21z m-39 -3 c3 -5 1 -10
-4 -10 -6 0 -11 5 -11 10 0 6 2 10 4 10 3 0 8 -4 11 -10z m-60 -40 c-3 -5 2
-24 11 -41 12 -25 18 -29 25 -18 5 8 9 10 9 4 0 -5 -4 -16 -9 -24 -7 -12 -13
-7 -27 22 -9 20 -21 34 -25 32 -3 -3 -9 4 -12 15 -3 10 0 21 7 23 15 6 28 -2
21 -13z m75 16 c0 -3 -4 -8 -10 -11 -5 -3 -10 -1 -10 4 0 6 5 11 10 11 6 0 10
-2 10 -4z m-27 -20 c4 -10 0 -14 -12 -13 -11 1 -17 7 -14 14 7 17 20 17 26 -1z
m-38 -96 c10 -11 14 -20 9 -20 -5 0 -15 9 -22 20 -7 11 -11 20 -9 20 2 0 12
-9 22 -20z m62 -85 c0 -8 -4 -12 -9 -9 -5 4 -7 9 -4 12 3 3 -2 15 -11 26 -18
21 -18 21 3 3 11 -9 21 -24 21 -32z m-2501 -73 c1 -15 3 -27 4 -27 2 0 3 -12
4 -27 3 -46 -12 -17 -18 35 -3 27 -9 54 -12 60 -5 8 -2 7 7 -1 7 -7 14 -25 15
-40z m-27 -25 c1 -5 -3 -5 -9 -2 -5 3 -10 16 -9 28 0 21 1 21 9 2 5 -11 9 -24
9 -28z m2598 -3 c-3 -4 5 -16 19 -27 19 -14 22 -22 13 -28 -10 -6 -10 -11 2
-26 12 -16 12 -17 -2 -6 -9 7 -19 9 -24 5 -4 -4 -2 3 4 15 10 19 8 25 -8 40
-18 15 -20 33 -4 33 4 0 3 -3 0 -6z m46 -9 c-3 -9 -8 -14 -10 -11 -3 3 -2 9 2
15 9 16 15 13 8 -4z m-100 -20 c-3 -9 -8 -14 -10 -11 -3 3 -2 9 2 15 9 16 15
13 8 -4z m127 -40 c0 -5 -5 -3 -10 5 -5 8 -10 20 -10 25 0 6 5 3 10 -5 5 -8
10 -19 10 -25z m-78 -21 c8 -17 8 -17 -4 -3 -7 9 -19 14 -25 12 -7 -3 -13 0
-13 5 0 17 32 7 42 -14z m71 -71 c-4 -11 -9 -9 -21 9 -9 13 -18 25 -21 28 -3
3 -7 12 -9 20 -2 9 9 3 26 -14 17 -16 28 -34 25 -43z m-69 39 c3 -5 -1 -9 -9
-9 -8 0 -12 4 -9 9 3 4 7 8 9 8 2 0 6 -4 9 -8z m3 -74 c2 -17 0 -19 -7 -8 -5
8 -6 18 -4 22 8 12 10 10 11 -14z m3 -83 c14 -19 14 -19 -2 -6 -10 7 -18 18
-18 24 0 6 1 8 3 6 1 -2 9 -13 17 -24z m-12 -35 c-2 -7 -10 1 -17 16 -12 27
-11 28 4 12 10 -9 16 -21 13 -28z m-2823 20 c3 -5 1 -10 -4 -10 -6 0 -11 5
-11 10 0 6 2 10 4 10 3 0 8 -4 11 -10z m-32 -7 c-7 -2 -19 -2 -25 0 -7 3 -2 5
12 5 14 0 19 -2 13 -5z m67 -3 c0 -5 -5 -10 -11 -10 -5 0 -7 5 -4 10 3 6 8 10
11 10 2 0 4 -4 4 -10z m100 -95 c7 -8 19 -15 26 -15 16 0 48 -45 41 -58 -3 -4
-1 -14 5 -22 8 -13 9 -12 5 2 -4 9 1 19 10 22 23 9 28 -1 14 -28 -9 -17 -25
-25 -55 -30 -22 -3 -51 -9 -63 -12 -22 -6 -22 -5 -12 25 11 32 9 81 -6 114 -9
22 17 24 35 2z m-95 -21 c22 -22 15 -48 -13 -52 -28 -4 -52 14 -52 38 0 31 40
39 65 14z m128 -165 c3 -12 3 -18 0 -15 -3 3 -12 -2 -20 -12 -12 -14 -14 -14
-10 -1 5 14 0 15 -39 6 -24 -6 -44 -13 -44 -16 0 -12 -63 -6 -67 6 -6 17 45
39 97 42 24 1 46 4 49 7 11 11 29 2 34 -17z m-47 -38 c-3 -5 3 -11 14 -14 11
-3 20 -1 20 5 0 5 5 6 11 2 8 -5 4 -13 -11 -24 -18 -13 -20 -19 -9 -24 8 -3
-1 -4 -19 -1 -20 3 -31 1 -27 -5 3 -6 1 -10 -5 -10 -7 0 -26 -6 -43 -14 -69
-30 -73 -31 -159 -40 -47 -5 -58 -3 -58 9 0 8 -4 15 -10 15 -5 0 -10 4 -10 9
0 13 39 21 46 10 3 -6 11 -5 20 2 7 6 20 9 28 6 8 -3 16 -1 18 4 2 6 28 12 58
13 61 3 130 22 130 37 0 5 -6 9 -12 9 -9 0 -8 4 2 10 19 12 23 12 16 1z m-66
-31 c0 -5 -8 -10 -17 -10 -15 0 -16 2 -3 10 19 12 20 12 20 0z m-255 -60 c3
-5 -1 -10 -9 -10 -9 0 -16 5 -16 10 0 6 4 10 9 10 6 0 13 -4 16 -10z m323 -26
c-1 -5 -10 -9 -18 -10 -8 -1 -24 -5 -35 -10 -18 -7 -19 -6 -4 8 22 22 66 31
57 12z m-22 -50 c-5 -14 -9 -15 -19 -5 -9 9 -9 14 3 21 18 11 24 6 16 -16z
m-113 -11 c-7 -2 -21 -2 -30 0 -10 3 -4 5 12 5 17 0 24 -2 18 -5z m-391 -17
c6 4 14 0 19 -7 6 -9 11 -11 17 -3 4 5 25 11 47 12 29 2 36 0 25 -8 -13 -8
-13 -10 2 -10 9 0 18 -9 20 -22 2 -12 9 -23 16 -24 7 -1 8 0 2 3 -5 2 -10 8
-10 13 0 10 40 7 58 -4 7 -4 16 -5 21 -1 6 3 15 -4 21 -15 9 -17 14 -19 26 -9
8 7 12 19 9 28 -3 9 4 5 16 -8 11 -14 18 -32 16 -42 -6 -24 31 -13 38 12 7 20
25 26 25 9 0 -5 -4 -10 -10 -10 -5 0 -10 -5 -10 -10 0 -6 8 -10 18 -8 13 2 16
-3 14 -19 -2 -17 1 -21 12 -17 11 4 16 0 16 -11 0 -15 2 -15 16 -4 10 8 18 9
22 3 4 -6 16 -16 27 -22 17 -10 17 -11 3 -12 -11 0 -15 -5 -12 -15 4 -9 0 -15
-9 -15 -9 0 -19 -4 -22 -10 -4 -6 3 -6 21 0 33 13 61 -4 43 -26 -8 -10 -8 -14
0 -14 19 0 12 -32 -8 -37 -14 -3 -17 -12 -15 -36 3 -18 9 -34 14 -35 6 -2 0
-12 -12 -23 -22 -18 -22 -18 -3 -19 11 -1 14 -4 7 -7 -6 -2 -9 -9 -6 -15 4 -6
-2 -8 -17 -4 -23 7 -23 7 -5 -8 12 -10 15 -16 7 -16 -8 0 -11 -6 -7 -15 3 -10
-1 -14 -12 -13 -9 1 -28 0 -42 -1 l-25 -3 24 -7 c31 -8 38 -41 7 -34 -21 5
-21 5 -1 -10 18 -15 19 -16 2 -17 -10 0 -15 -4 -12 -10 3 -5 -1 -10 -9 -10 -8
0 -18 -5 -22 -11 -4 -8 1 -9 16 -4 21 7 22 7 3 -12 -10 -10 -31 -24 -47 -31
-22 -10 -26 -15 -17 -26 9 -11 6 -15 -11 -21 l-23 -7 25 -7 c27 -8 21 -15 -25
-25 -29 -7 -29 -8 -11 -22 20 -14 20 -14 0 -29 -14 -10 -15 -14 -5 -15 11 0
12 -3 4 -11 -6 -6 -9 -18 -6 -26 5 -12 7 -12 14 -1 7 10 9 9 9 -4 0 -10 7 -18
15 -18 8 0 15 -5 15 -11 0 -6 -9 -8 -20 -4 -27 9 -25 -1 6 -30 15 -14 24 -31
21 -39 -3 -8 1 -20 9 -26 7 -7 12 -23 10 -36 -4 -18 -1 -22 12 -17 14 5 15 3
5 -7 -9 -10 -10 -17 -1 -27 9 -11 7 -12 -8 -6 -18 7 -18 6 -3 -17 9 -14 18
-44 21 -67 5 -36 4 -41 -11 -35 -14 5 -14 4 2 -12 9 -9 17 -21 17 -26 0 -5 -8
-14 -17 -19 -16 -9 -16 -12 -3 -22 11 -8 12 -12 3 -15 -9 -4 -4 -18 14 -47 14
-23 29 -44 32 -47 13 -11 29 -72 24 -88 -3 -9 -3 -14 1 -10 10 8 46 -22 46
-39 0 -7 -7 -10 -15 -7 -8 4 -15 11 -15 18 0 6 -10 11 -23 11 -20 0 -22 -4
-18 -34 2 -23 0 -32 -8 -27 -6 4 -11 16 -11 27 0 10 -4 19 -10 19 -5 0 -8 6
-6 13 1 6 1 9 -1 5 -3 -5 -14 -8 -25 -8 -11 0 -18 -5 -15 -12 2 -7 9 -12 14
-11 5 1 7 -13 5 -30 -4 -44 -4 -58 2 -92 3 -17 1 -33 -7 -38 -9 -7 -9 -10 2
-14 11 -4 11 -7 0 -14 -8 -5 -12 -24 -10 -50 l2 -43 -25 29 c-14 16 -23 32
-20 37 3 4 -1 8 -9 8 -17 0 -78 155 -82 207 -3 50 16 123 32 123 7 0 13 -6 14
-12 0 -10 2 -10 5 -1 3 7 12 9 20 6 7 -3 11 -10 8 -15 -4 -6 -1 -9 7 -6 17 6
31 56 23 90 -4 19 0 29 13 37 17 10 17 10 1 11 -10 0 -18 7 -18 16 0 9 -8 23
-17 30 -17 13 -17 13 1 14 16 0 17 3 8 12 -15 15 -16 32 -1 22 7 -4 10 1 7 12
-2 11 -9 20 -16 20 -6 1 -16 2 -21 3 -6 0 -6 13 -1 31 5 19 5 28 -1 25 -5 -4
-9 -1 -9 4 0 6 -9 11 -20 11 -13 0 -20 7 -20 19 0 25 -18 37 -26 17 -3 -8 -13
-17 -21 -20 -13 -5 -14 -4 -3 9 7 8 10 22 6 30 -3 9 -2 14 3 11 5 -3 12 1 15
10 4 12 2 15 -9 10 -11 -4 -15 2 -15 21 0 14 -10 34 -22 44 -11 11 -18 22 -14
26 3 4 12 1 18 -5 19 -19 29 -14 16 8 -7 11 -19 18 -27 15 -10 -4 -12 1 -9 20
4 17 1 25 -9 25 -8 0 -11 -5 -8 -11 4 -6 -2 -5 -14 3 -12 7 -22 22 -22 33 -3
55 -9 79 -25 96 -9 10 -21 16 -25 13 -5 -3 -9 2 -9 10 0 9 -6 16 -13 16 -17 0
-15 63 2 83 8 11 6 18 -9 32 -11 10 -20 24 -20 32 0 7 -4 13 -10 13 -5 0 -10
7 -10 15 0 8 -5 15 -11 15 -6 0 -9 6 -7 12 3 7 -9 26 -25 42 -26 26 -27 31
-13 41 9 7 16 15 16 17 0 10 -35 4 -43 -7 -5 -6 -7 -4 -4 5 2 8 11 14 21 12 9
-2 16 2 16 8 0 5 -7 10 -15 10 -13 0 -14 2 -3 14 11 12 15 11 24 -7 11 -19 12
-18 16 11 4 28 1 32 -24 37 -15 4 -28 11 -28 16 0 6 9 7 22 3 20 -6 21 -5 6
10 -22 22 -49 21 -41 -1 4 -11 -6 -7 -30 13 -31 24 -34 30 -20 34 20 6 27 51
10 62 -7 4 -7 11 1 20 7 9 8 19 2 28 -14 22 -12 30 6 30 9 0 14 7 12 18 -6 31
20 49 67 46 30 -2 48 3 57 13 8 10 14 11 16 4 2 -6 8 -8 14 -5z m452 -2 c13
-5 13 -8 1 -20 -18 -18 -36 -18 -29 0 3 8 -2 16 -13 19 -15 4 -14 5 4 6 12 0
28 -2 37 -5z m-633 -27 c-6 -8 -8 -17 -4 -21 4 -4 0 -4 -9 -1 -14 5 -15 10 -5
21 16 17 33 18 18 1z m539 3 c0 -5 -2 -10 -4 -10 -3 0 -8 5 -11 10 -3 6 -1 10
4 10 6 0 11 -4 11 -10z m37 -62 c-3 -8 -6 -5 -6 6 -1 11 2 17 5 13 3 -3 4 -12
1 -19z m518 -248 c-4 -6 -11 -8 -16 -4 -6 3 -7 -4 -4 -18 4 -16 1 -29 -9 -37
-13 -11 -16 -11 -16 2 0 30 20 67 35 67 9 0 13 -5 10 -10z m25 -111 c-7 -38
-34 -79 -52 -79 -14 0 -9 50 6 56 8 3 17 13 20 21 5 13 4 14 -9 3 -10 -8 -15
-9 -15 -2 0 6 9 16 20 22 11 6 18 15 15 20 -3 6 0 7 8 4 11 -4 12 -15 7 -45z
m-1030 7 c0 -3 -4 -8 -10 -11 -5 -3 -10 -1 -10 4 0 6 5 11 10 11 6 0 10 -2 10
-4z m38 -64 c2 -7 -2 -10 -12 -6 -9 3 -16 11 -16 16 0 13 23 5 28 -10z m19
-48 c-3 -3 -12 -4 -19 -1 -8 3 -5 6 6 6 11 1 17 -2 13 -5z m33 -29 c0 -8 -7
-15 -15 -15 -16 0 -20 12 -8 23 11 12 23 8 23 -8z m1682 -635 c11 0 15 -5 12
-15 -4 -8 -1 -15 6 -15 6 0 8 -5 5 -10 -4 -6 5 -5 20 2 33 15 48 -3 34 -39
-18 -47 -11 -59 16 -33 15 14 23 30 20 39 -3 9 -3 12 1 8 4 -4 13 -2 19 3 9 8
16 -4 27 -47 7 -32 12 -65 10 -74 -2 -14 -37 -37 -52 -36 -9 1 -105 -57 -112
-68 -4 -5 -34 -9 -68 -7 -39 1 -59 -1 -55 -8 11 -18 -19 -46 -50 -46 -17 1
-36 -7 -45 -17 -19 -23 -97 -42 -115 -27 -9 8 -14 7 -18 -3 -5 -13 -110 -37
-165 -37 -36 0 -45 11 -44 51 1 27 -2 29 -36 30 -20 1 -41 1 -45 0 -17 -3 -47
21 -48 37 0 13 -3 12 -11 -5 -17 -35 -31 -28 -67 32 -40 66 -56 124 -35 132
23 9 59 -5 87 -32 l25 -26 7 30 c9 44 51 73 97 69 29 -3 39 1 45 16 8 17 10
17 25 2 10 -9 19 -12 23 -7 3 6 11 8 18 5 7 -2 21 4 31 15 24 26 153 46 183
28 5 -3 31 5 58 18 27 14 59 25 71 25 13 0 26 5 30 11 4 7 21 9 43 5 20 -3 44
-6 53 -6z m239 -123 c-11 -29 -46 -53 -56 -37 -9 15 14 50 38 59 28 11 30 9
18 -22z m-1093 -85 c6 -18 -15 -14 -22 4 -4 10 -1 14 6 12 6 -2 14 -10 16 -16z
m1072 -16 c0 -3 -4 -8 -10 -11 -5 -3 -10 -1 -10 4 0 6 5 11 10 11 6 0 10 -2
10 -4z m-1465 -66 c3 -5 1 -10 -4 -10 -6 0 -11 5 -11 10 0 6 2 10 4 10 3 0 8
-4 11 -10z m658 -130 c-13 -12 -53 7 -53 26 0 12 7 15 25 12 18 -4 25 -1 26
11 1 9 4 3 6 -13 3 -16 1 -32 -4 -36z m-116 28 c-3 -8 -6 -5 -6 6 -1 11 2 17
5 13 3 -3 4 -12 1 -19z m217 -83 c3 -8 2 -15 -3 -15 -5 0 -14 7 -21 15 -10 12
-10 15 3 15 8 0 17 -7 21 -15z m-44 -5 c0 -5 -7 -10 -16 -10 -8 0 -12 5 -9 10
3 6 10 10 16 10 5 0 9 -4 9 -10z m310 -960 c0 -5 -2 -10 -4 -10 -3 0 -8 5 -11
10 -3 6 -1 10 4 10 6 0 11 -4 11 -10z m-1189 -659 c-9 -6 -10 -11 -2 -15 6 -4
15 -5 19 -2 5 3 22 -11 38 -31 116 -148 164 -202 298 -337 109 -110 176 -169
241 -211 50 -32 95 -64 100 -70 17 -19 68 -33 135 -38 58 -4 101 -17 207 -63
17 -8 34 -14 37 -14 3 0 30 -11 60 -25 30 -14 57 -25 60 -25 3 0 29 -15 58
-34 54 -34 108 -88 108 -106 0 -5 7 -10 15 -10 29 0 10 -25 -42 -55 -28 -16
-68 -42 -90 -57 -37 -25 -96 -49 -80 -32 4 4 -7 15 -25 24 -18 8 -32 20 -31
25 2 13 38 23 84 24 19 1 39 5 45 10 5 6 23 12 41 15 18 4 44 11 58 16 25 9
25 11 9 35 -9 14 -21 25 -26 25 -6 0 -5 -7 2 -15 8 -10 9 -19 4 -24 -13 -12
-143 -21 -150 -10 -8 13 -42 11 -47 -3 -3 -8 -6 -6 -6 5 -1 9 -5 17 -11 17
-22 0 -8 32 23 50 25 16 43 19 80 15 26 -3 57 -10 68 -15 31 -17 22 5 -13 32
-78 60 -359 173 -465 188 -152 21 -148 22 -209 -15 -32 -19 -67 -44 -79 -55
-12 -11 -26 -20 -31 -20 -6 0 -25 -16 -44 -35 -19 -19 -39 -35 -45 -35 -6 0
-26 -14 -45 -31 -63 -54 -74 -64 -145 -119 -38 -30 -73 -58 -76 -63 -3 -5 -9
-8 -13 -8 -3 1 -7 -2 -8 -6 -3 -10 -54 -53 -62 -53 -3 0 -15 -8 -25 -17 -37
-34 -49 -42 -54 -37 -3 3 -11 -4 -17 -16 -6 -12 -14 -19 -17 -16 -4 3 -13 -3
-20 -14 -8 -11 -18 -18 -23 -15 -4 3 -11 -2 -14 -11 -3 -8 -11 -12 -17 -8 -7
4 -9 3 -6 -3 9 -15 -19 -36 -35 -27 -7 4 -10 4 -6 -1 9 -9 -9 -35 -24 -35 -5
0 -6 6 -2 13 4 7 3 9 -2 4 -5 -5 -9 -13 -9 -18 0 -5 -58 -47 -129 -94 l-130
-86 -22 26 c-12 14 -25 42 -28 63 -4 20 -20 91 -37 157 -51 207 -141 659 -136
688 2 15 0 30 -5 33 -11 7 -10 34 2 34 6 0 10 -8 10 -19 0 -10 7 -24 15 -31 8
-7 15 -21 15 -32 0 -10 10 -23 23 -28 20 -8 20 -9 2 -10 -19 -1 -19 -1 -2 -11
19 -11 38 -49 43 -88 2 -13 8 -29 15 -35 8 -8 10 -3 7 21 -3 19 -1 30 6 26 5
-4 7 1 3 10 -5 12 -1 17 13 17 10 0 22 -5 25 -10 4 -6 15 -8 26 -5 12 4 19 2
19 -7 0 -10 3 -9 10 2 8 12 10 11 10 -7 0 -16 6 -23 20 -23 13 0 20 -7 20 -19
0 -23 36 -34 53 -16 10 10 16 3 34 -36 24 -52 50 -68 39 -23 -5 19 -3 25 6 22
7 -3 13 -11 13 -19 1 -19 14 -39 26 -39 6 0 6 8 -1 20 -11 21 -6 40 10 40 5 0
6 -7 3 -17 -4 -11 -3 -14 6 -9 9 6 12 2 9 -14 -2 -14 3 -25 12 -27 13 -4 13
-3 0 6 -9 6 -10 11 -3 11 6 0 13 10 15 23 3 19 6 17 24 -18 11 -22 26 -39 32
-38 7 2 13 -5 13 -15 1 -9 2 -21 4 -27 1 -5 3 -16 3 -23 1 -7 6 -11 11 -8 5 3
7 16 3 29 -5 20 -4 21 11 8 15 -12 17 -11 17 5 0 11 5 26 11 34 8 12 9 9 5
-12 -16 -77 -17 -84 -2 -48 8 19 15 29 15 23 1 -7 9 -13 18 -13 15 0 14 2 -3
15 -16 13 -17 16 -4 25 12 7 12 10 1 10 -7 0 -11 6 -8 14 3 7 0 19 -6 25 -6 6
-8 14 -4 18 4 3 14 -2 22 -13 8 -10 15 -14 15 -9 0 6 -5 16 -12 23 -8 8 -9 18
-1 36 8 17 8 27 0 35 -8 8 -8 11 0 11 6 0 16 -7 23 -15 7 -8 20 -15 29 -15 9
0 23 -6 30 -12 11 -11 11 -9 0 9 -7 12 -10 26 -6 30 5 4 12 1 16 -6 6 -9 11 0
16 28 4 26 12 41 21 41 8 0 17 7 20 15 8 21 23 9 17 -14 -3 -10 0 -22 6 -25 7
-5 11 9 12 41 0 26 3 42 6 35 2 -6 9 -9 15 -6 7 4 8 -2 3 -17 -7 -23 -7 -23
12 -6 11 9 26 17 35 17 19 0 12 50 -10 66 -12 9 -12 13 -2 19 10 6 9 9 -1 16
-10 6 -11 9 -1 9 6 0 12 11 12 25 0 14 -5 25 -11 25 -6 0 -9 9 -6 19 3 14 1
18 -9 14 -17 -6 -19 13 -1 20 8 4 9 8 1 14 -19 14 -34 50 -34 82 0 17 -4 31
-9 31 -4 0 -6 10 -4 23 2 14 -5 31 -19 47 -13 14 -31 41 -41 61 -9 20 -23 42
-32 49 -8 7 -13 16 -10 20 3 4 -2 13 -10 20 -7 6 -11 19 -8 27 5 12 3 14 -7 8
-10 -6 -12 -4 -7 8 3 10 3 17 -2 17 -10 0 -21 47 -13 55 3 3 10 5 16 5 6 0 5
-4 -3 -9z m-724 -473 c-3 -8 -6 -5 -6 6 -1 11 2 17 5 13 3 -3 4 -12 1 -19z
m923 -69 c0 -5 -4 -9 -10 -9 -5 0 -10 7 -10 16 0 8 5 12 10 9 6 -3 10 -10 10
-16z m-150 -189 c0 -5 -5 -10 -11 -10 -5 0 -7 5 -4 10 3 6 8 10 11 10 2 0 4
-4 4 -10z m-30 -35 c0 -8 -4 -15 -10 -15 -5 0 -7 7 -4 15 4 8 8 15 10 15 2 0
4 -7 4 -15z m995 -35 c8 0 15 -4 15 -9 0 -6 14 -11 32 -13 32 -3 53 -28 23
-28 -28 0 -122 48 -129 66 -6 15 -5 15 18 0 14 -9 32 -16 41 -16z m-1168 -47
c-4 -3 0 -15 10 -25 9 -10 11 -18 5 -18 -6 0 -16 9 -22 19 -13 25 -13 31 2 31
6 0 8 -3 5 -7z m48 -13 c3 -5 2 -10 -4 -10 -5 0 -13 5 -16 10 -3 6 -2 10 4 10
5 0 13 -4 16 -10z m1285 -20 c-15 -9 -52 -1 -45 10 2 4 16 5 31 2 16 -3 21 -7
14 -12z m165 10 c-3 -5 2 -10 12 -10 15 0 16 -2 3 -10 -10 -6 -16 -6 -18 0 -2
6 -9 7 -15 3 -7 -4 -6 1 2 10 15 18 26 23 16 7z m185 6 c0 -3 -4 -8 -10 -11
-5 -3 -10 -1 -10 4 0 6 5 11 10 11 6 0 10 -2 10 -4z m-95 -26 c-3 -5 -1 -10 5
-10 6 0 9 -4 5 -10 -3 -5 -12 -7 -20 -3 -8 3 -15 0 -15 -6 0 -6 -7 -8 -16 -4
-12 4 -14 0 -9 -23 3 -16 2 -22 -1 -14 -4 8 -13 20 -21 27 -12 9 -9 12 18 18
24 6 28 9 18 17 -11 8 -10 9 3 4 10 -3 20 -1 23 4 4 6 8 10 11 10 3 0 2 -4 -1
-10z m470 -160 c3 -5 -1 -10 -10 -10 -9 0 -13 5 -10 10 3 6 8 10 10 10 2 0 7
-4 10 -10z m-426 -3 c-9 -9 -99 -16 -99 -8 0 4 23 9 52 10 28 1 50 0 47 -2z
m-422 -62 c0 -18 -8 -19 -43 -3 l-27 13 24 6 c31 7 46 2 46 -16z"/>
<path d="M3767 10814 c7 -3 10 -11 7 -19 -3 -7 -1 -16 4 -19 6 -3 13 2 16 11
7 16 -9 33 -29 32 -5 0 -5 -3 2 -5z"/>
<path d="M3586 10625 c4 -8 11 -15 16 -15 6 0 5 6 -2 15 -7 8 -14 15 -16 15
-2 0 -1 -7 2 -15z"/>
<path d="M3554 10590 c1 -34 2 -35 20 -17 11 11 11 17 1 30 -17 24 -22 21 -21
-13z"/>
<path d="M3494 10575 c-3 -8 -4 -20 -1 -27 4 -9 6 -8 6 3 1 9 11 21 24 27 l22
11 -23 0 c-12 1 -25 -6 -28 -14z"/>
<path d="M3510 10549 c0 -5 5 -7 10 -4 6 3 10 8 10 11 0 2 -4 4 -10 4 -5 0
-10 -5 -10 -11z"/>
<path d="M5950 10290 c8 -5 20 -10 25 -10 6 0 3 5 -5 10 -8 5 -19 10 -25 10
-5 0 -3 -5 5 -10z"/>
<path d="M3460 10280 c0 -5 5 -10 10 -10 6 0 10 5 10 10 0 6 -4 10 -10 10 -5
0 -10 -4 -10 -10z"/>
<path d="M5940 10270 c0 -17 20 -50 30 -50 11 0 1 30 -17 48 -9 9 -13 10 -13
2z"/>
<path d="M5946 10101 c-3 -5 1 -17 10 -25 20 -21 21 -20 20 6 -1 23 -20 35
-30 19z"/>
<path d="M3480 10091 c0 -6 5 -13 10 -16 6 -3 10 1 10 9 0 9 -4 16 -10 16 -5
0 -10 -4 -10 -9z"/>
<path d="M5976 9991 c-3 -5 3 -11 15 -14 16 -4 18 -3 8 9 -13 16 -16 17 -23 5z"/>
<path d="M3480 9980 c0 -5 5 -10 10 -10 6 0 10 5 10 10 0 6 -4 10 -10 10 -5 0
-10 -4 -10 -10z"/>
<path d="M3546 9981 c-4 -7 -5 -15 -2 -18 9 -9 19 4 14 18 -4 11 -6 11 -12 0z"/>
<path d="M3450 9970 c0 -5 5 -10 11 -10 5 0 7 5 4 10 -3 6 -8 10 -11 10 -2 0
-4 -4 -4 -10z"/>
<path d="M3546 9905 c-3 -8 -1 -15 4 -15 6 0 10 7 10 15 0 8 -2 15 -4 15 -2 0
-6 -7 -10 -15z"/>
<path d="M6025 9890 c21 -24 26 -25 19 -6 -3 8 -13 17 -22 21 -13 5 -13 2 3
-15z"/>
<path d="M6070 9899 c0 -5 5 -7 10 -4 6 3 10 8 10 11 0 2 -4 4 -10 4 -5 0 -10
-5 -10 -11z"/>
<path d="M6110 9886 c0 -2 8 -10 18 -17 15 -13 16 -12 3 4 -13 16 -21 21 -21
13z"/>
<path d="M3500 9870 c0 -5 5 -10 10 -10 6 0 10 5 10 10 0 6 -4 10 -10 10 -5 0
-10 -4 -10 -10z"/>
<path d="M6104 9853 c9 -18 21 -33 27 -33 13 0 -4 32 -27 51 -16 13 -16 12 0
-18z"/>
<path d="M3510 9834 c0 -8 5 -12 10 -9 6 3 10 10 10 16 0 5 -4 9 -10 9 -5 0
-10 -7 -10 -16z"/>
<path d="M6035 9820 c3 -5 8 -10 11 -10 2 0 4 5 4 10 0 6 -5 10 -11 10 -5 0
-7 -4 -4 -10z"/>
<path d="M6087 9812 c-5 -7 -14 -9 -20 -5 -7 4 -6 -1 2 -11 8 -9 24 -22 35
-28 18 -9 19 -9 10 3 -7 8 -14 23 -16 34 -2 14 -6 16 -11 7z"/>
<path d="M3500 9790 c0 -5 5 -10 10 -10 6 0 10 5 10 10 0 6 -4 10 -10 10 -5 0
-10 -4 -10 -10z"/>
<path d="M6187 9764 c3 -7 9 -14 14 -14 14 0 10 17 -5 23 -10 4 -13 1 -9 -9z"/>
<path d="M3485 9751 c-3 -5 -1 -12 5 -16 5 -3 10 1 10 9 0 18 -6 21 -15 7z"/>
<path d="M6084 9752 c3 -5 0 -13 -6 -15 -8 -3 -6 -6 5 -6 19 -1 23 14 5 25 -6
4 -8 3 -4 -4z"/>
<path d="M6110 9670 c14 -10 27 -17 29 -14 6 5 -31 33 -44 33 -5 1 1 -8 15
-19z"/>
<path d="M3486 9671 c-4 -7 -5 -15 -2 -18 9 -9 19 4 14 18 -4 11 -6 11 -12 0z"/>
<path d="M6100 9656 c0 -2 8 -10 18 -17 15 -13 16 -12 3 4 -13 16 -21 21 -21
13z"/>
<path d="M6160 9636 c0 -2 8 -10 18 -17 15 -13 16 -12 3 4 -13 16 -21 21 -21
13z"/>
<path d="M6151 9613 c7 -12 15 -20 18 -17 3 2 -3 12 -13 22 -17 16 -18 16 -5
-5z"/>
<path d="M6126 9595 c4 -8 11 -15 16 -15 6 0 5 6 -2 15 -7 8 -14 15 -16 15 -2
0 -1 -7 2 -15z"/>
<path d="M5385 9560 c3 -5 8 -10 11 -10 2 0 4 5 4 10 0 6 -5 10 -11 10 -5 0
-7 -4 -4 -10z"/>
<path d="M4807 9498 c-46 -46 -85 -67 -56 -30 13 15 12 16 -3 3 -13 -10 -15
-18 -7 -32 7 -14 5 -27 -6 -49 -14 -28 -13 -35 8 -31 5 1 6 -3 2 -9 -3 -6 -10
-8 -15 -5 -4 3 -7 -3 -6 -13 0 -9 -6 -17 -14 -17 -17 0 -31 57 -19 77 7 10 9
10 10 -2 1 -8 5 0 9 19 8 35 4 61 -10 61 -4 0 -5 -10 -3 -23 3 -14 -3 -29 -16
-41 -21 -19 -21 -19 -21 2 0 12 -4 22 -10 22 -5 0 -9 -3 -9 -7 4 -25 -2 -85
-8 -80 -3 4 -5 31 -4 60 1 41 -2 54 -12 54 -11 0 -14 -16 -15 -59 0 -32 3 -58
8 -58 5 0 12 -11 16 -24 8 -32 34 -42 41 -16 6 22 18 26 28 10 3 -5 15 -10 26
-10 23 0 24 -6 4 -26 -8 -9 -15 -19 -15 -24 0 -13 37 -19 49 -7 17 17 13 31
-4 17 -9 -7 -18 -10 -21 -8 -8 8 47 49 57 42 5 -2 22 2 40 11 17 9 33 14 36
12 2 -3 -6 -11 -19 -18 -12 -6 -35 -25 -49 -40 -14 -16 -31 -29 -38 -29 -8 0
-10 -8 -6 -22 3 -13 3 -18 -2 -12 -8 11 -53 14 -53 4 0 -3 6 -12 13 -20 10
-12 9 -12 -5 -1 -18 13 -43 6 -33 -9 3 -5 1 -11 -5 -15 -5 -3 -10 -18 -10 -32
0 -16 -7 -27 -20 -30 -11 -3 -20 -14 -20 -24 0 -25 6 -24 38 6 l27 25 5 -32
c5 -33 -15 -71 -28 -52 -10 14 -62 14 -62 0 0 -16 16 -38 26 -37 5 0 8 -17 6
-38 -1 -27 2 -41 13 -45 8 -3 15 -12 15 -21 0 -8 7 -15 15 -15 12 0 13 -5 4
-27 -14 -39 -5 -51 36 -49 20 1 39 -2 41 -6 3 -4 11 -5 19 -1 10 3 15 -1 15
-15 0 -11 7 -22 15 -26 25 -9 17 -25 -10 -20 -14 2 -34 0 -43 -5 -10 -6 -12
-11 -4 -11 6 0 12 -7 12 -16 0 -10 6 -14 14 -11 8 3 20 -1 26 -8 7 -8 16 -12
21 -9 5 3 9 0 9 -6 0 -6 4 -8 10 -5 5 3 18 1 28 -4 28 -15 110 -22 117 -11 3
6 14 10 23 9 14 0 13 -2 -3 -8 -19 -8 -19 -8 2 -19 27 -15 77 -16 68 -2 -3 6
-16 10 -28 11 -21 1 -21 1 2 8 22 6 21 7 -15 23 -22 9 -76 28 -122 41 -45 13
-79 26 -76 30 3 3 16 2 28 -2 11 -5 27 -6 34 -4 6 3 12 1 12 -4 0 -5 8 -9 18
-10 9 -1 44 -6 77 -11 62 -10 80 -7 55 8 -11 7 -4 9 23 8 44 -1 61 16 44 43
-7 11 -14 14 -18 8 -4 -7 -8 -5 -12 4 -4 11 13 20 68 36 90 26 109 49 109 134
1 31 3 57 6 57 3 0 22 -11 44 -24 38 -23 85 -97 65 -104 -25 -9 -4 -22 36 -22
29 0 45 -4 45 -12 1 -8 6 -6 14 4 7 10 16 15 19 11 4 -3 7 -2 7 3 0 6 17 8 38
7 l37 -4 -25 16 -25 16 33 -7 c29 -5 33 -3 30 12 -1 9 -20 23 -41 30 -21 7
-51 23 -68 35 -26 18 -42 25 -70 28 -3 1 -19 13 -34 27 -15 14 -37 27 -49 28
-11 1 -28 5 -36 9 -25 10 -123 35 -150 39 -14 2 -28 10 -32 18 -5 12 -7 12 -7
-2 -1 -11 -9 -18 -21 -18 -29 0 -25 11 14 43 42 33 89 35 191 8 84 -21 103
-31 175 -85 67 -50 127 -83 136 -73 7 7 -33 47 -46 47 -5 0 -11 11 -14 25 -4
14 -11 25 -17 25 -13 0 -25 11 -111 94 -39 37 -73 64 -77 58 -7 -11 -72 -22
-65 -10 3 4 -5 8 -17 8 -12 0 -19 3 -16 7 4 4 -10 15 -30 24 -24 11 -42 14
-47 8 -13 -12 -46 -12 -46 1 0 6 9 10 20 10 11 0 20 7 20 15 0 15 73 40 95 31
7 -2 15 4 18 15 4 13 10 17 23 12 12 -4 15 -3 10 5 -4 7 0 13 11 14 33 2 38 3
51 11 6 5 16 5 22 2 5 -3 22 1 37 9 19 10 22 15 11 16 -9 0 -20 -4 -23 -10 -8
-12 -25 -13 -25 -1 0 12 39 23 76 21 18 -1 35 4 39 9 3 6 11 8 17 5 6 -4 8 -2
5 3 -9 15 -139 4 -157 -13 -10 -10 -11 -14 -2 -14 7 0 10 -5 6 -11 -4 -8 -12
-3 -20 12 -7 13 -13 20 -14 15 0 -5 -7 -3 -15 4 -8 7 -36 16 -61 21 -25 5 -61
16 -79 25 -19 9 -41 14 -49 11 -18 -7 -28 3 -17 17 7 8 -14 10 -72 7 -58 -2
-85 -8 -92 -18 -7 -9 -23 -15 -38 -15 -15 0 -40 -13 -58 -29 -18 -16 -29 -29
-24 -29 5 0 -7 -13 -25 -30 -18 -16 -37 -30 -42 -30 -11 0 9 39 36 69 l21 24
-29 -19 -29 -18 13 24 c16 32 71 90 84 90 6 0 -7 -16 -29 -35 l-40 -36 35 21
c19 11 44 20 54 20 11 0 16 3 13 7 -8 7 40 32 83 44 15 4 -6 6 -50 6 l-75 -1
-48 -48z m364 -63 c0 -5 -5 -11 -13 -13 -9 -2 -8 0 2 8 12 9 9 11 -15 6 -16
-3 -41 -8 -55 -12 -17 -5 -22 -3 -15 4 20 21 95 27 96 7z m-214 -23 c-10 -10
-15 -21 -13 -23 2 -2 -7 -5 -20 -5 -32 -2 -30 2 9 26 40 25 45 25 24 2z m-77
-5 c0 -2 -12 -14 -27 -28 -24 -22 -24 -13 0 19 8 11 27 17 27 9z m-203 -69
c-3 -8 -6 -5 -6 6 -1 11 2 17 5 13 3 -3 4 -12 1 -19z m442 -59 c-22 -13 -31
-11 -17 5 7 8 17 12 22 9 4 -3 2 -9 -5 -14z m-389 -139 c0 -5 -5 -10 -11 -10
-5 0 -7 5 -4 10 3 6 8 10 11 10 2 0 4 -4 4 -10z m471 -175 c13 9 11 -19 -3
-33 -24 -24 -78 -8 -78 24 0 20 53 34 63 17 5 -7 12 -11 18 -8z m-246 -38 c0
-38 6 -60 23 -84 13 -18 20 -37 17 -43 -5 -9 15 -15 38 -11 4 1 17 -5 27 -12
19 -13 19 -14 -2 -31 -19 -17 -20 -17 -15 -1 9 22 -3 42 -14 24 -6 -10 -9 -11
-9 -1 0 6 -7 12 -15 12 -8 0 -15 -4 -15 -10 0 -5 -5 -10 -11 -10 -7 0 -9 9 -5
24 5 22 2 25 -52 35 -31 6 -61 12 -67 14 -38 10 -49 45 -12 42 14 -1 21 -8 21
-19 -3 -26 13 -19 30 14 14 29 14 30 -10 36 -13 3 -24 10 -24 15 0 5 7 6 15 3
9 -4 19 3 27 20 6 15 17 25 24 22 8 -3 16 -1 19 4 10 15 10 13 10 -43z m-169
-84 c24 -29 19 -47 -11 -41 -23 4 -40 31 -32 52 9 22 16 20 43 -11z m714 23
c0 -2 -9 -6 -20 -9 -11 -3 -18 -1 -14 4 5 9 34 13 34 5z m-530 -70 c0 -11 -19
-15 -25 -6 -3 5 1 10 9 10 9 0 16 -2 16 -4z m63 -83 c-7 -2 -19 -2 -25 0 -7 3
-2 5 12 5 14 0 19 -2 13 -5z"/>
<path d="M5340 9545 c0 -18 15 -30 40 -33 24 -2 24 -2 5 10 -11 6 -22 11 -24
9 -2 -1 -8 3 -12 11 -5 7 -9 9 -9 3z"/>
<path d="M4952 9518 c-17 -5 -32 -10 -32 -13 0 -6 103 7 120 15 19 11 -45 9
-88 -2z"/>
<path d="M5410 9510 c0 -5 5 -10 11 -10 5 0 7 5 4 10 -3 6 -8 10 -11 10 -2 0
-4 -4 -4 -10z"/>
<path d="M5376 9492 c-7 -11 26 -22 70 -22 41 0 83 -22 98 -51 9 -19 24 -25
81 -34 39 -6 81 -18 95 -27 14 -9 36 -19 50 -23 14 -4 32 -13 40 -20 20 -16
60 -26 60 -14 0 5 -12 15 -27 21 -41 18 -68 41 -68 58 0 8 -18 21 -40 29 -22
8 -46 21 -53 28 -11 11 -9 13 10 13 21 1 21 2 5 11 -12 7 -30 8 -55 1 l-37 -9
33 -13 c17 -6 32 -16 32 -20 0 -5 16 -14 36 -20 19 -7 34 -14 31 -16 -2 -2
-17 0 -33 5 -16 5 -41 12 -56 15 -15 4 -36 16 -47 27 -11 12 -24 18 -30 14 -6
-3 -11 -2 -11 3 0 10 -55 28 -113 37 -21 3 -44 8 -52 11 -7 3 -16 1 -19 -4z
m211 -78 c-3 -3 -12 -4 -19 -1 -8 3 -5 6 6 6 11 1 17 -2 13 -5z"/>
<path d="M5320 9480 c0 -5 5 -10 10 -10 6 0 10 5 10 10 0 6 -4 10 -10 10 -5 0
-10 -4 -10 -10z"/>
<path d="M5278 9463 c6 -2 18 -2 25 0 6 3 1 5 -13 5 -14 0 -19 -2 -12 -5z"/>
<path d="M3760 9451 c0 -6 4 -13 10 -16 6 -3 7 1 4 9 -7 18 -14 21 -14 7z"/>
<path d="M5330 9439 c0 -5 9 -9 20 -9 11 0 20 4 20 8 0 4 -9 8 -20 9 -11 1
-20 -2 -20 -8z"/>
<path d="M3850 9351 c0 -6 4 -13 10 -16 6 -3 7 1 4 9 -7 18 -14 21 -14 7z"/>
<path d="M4570 9335 c0 -8 5 -15 10 -15 6 0 10 7 10 15 0 8 -4 15 -10 15 -5 0
-10 -7 -10 -15z"/>
<path d="M5700 9320 c8 -5 25 -10 38 -10 15 0 21 -4 16 -12 -4 -7 -3 -8 5 -4
6 4 14 1 17 -7 3 -9 14 -12 29 -9 31 6 24 18 -22 37 -41 17 -108 21 -83 5z"/>
<path d="M5635 9310 c-3 -5 3 -10 15 -10 12 0 18 5 15 10 -3 6 -10 10 -15 10
-5 0 -12 -4 -15 -10z"/>
<path d="M4537 9283 c7 -19 28 -43 37 -43 3 0 -3 13 -12 30 -18 32 -36 41 -25
13z"/>
<path d="M5190 9289 c0 -5 5 -7 10 -4 6 3 10 8 10 11 0 2 -4 4 -10 4 -5 0 -10
-5 -10 -11z"/>
<path d="M3985 9269 c-4 -6 -5 -12 -2 -15 2 -3 7 2 10 11 7 17 1 20 -8 4z"/>
<path d="M4477 9262 c-3 -4 3 -13 14 -20 10 -7 19 -8 19 -3 0 13 -28 33 -33
23z"/>
<path d="M4645 9260 c-3 -5 -1 -10 4 -10 6 0 11 5 11 10 0 6 -2 10 -4 10 -3 0
-8 -4 -11 -10z"/>
<path d="M5780 9259 c-28 -8 -27 -9 15 -14 17 -2 49 -7 73 -10 27 -4 42 -2 42
4 0 6 -13 11 -29 11 -16 0 -40 4 -53 8 -13 5 -34 5 -48 1z"/>
<path d="M4615 9250 c3 -5 8 -10 11 -10 2 0 4 5 4 10 0 6 -5 10 -11 10 -5 0
-7 -4 -4 -10z"/>
<path d="M5790 9229 c0 -5 9 -9 20 -9 11 0 20 2 20 4 0 2 -9 6 -20 9 -11 3
-20 1 -20 -4z"/>
<path d="M5848 9168 c5 -5 16 -8 23 -6 8 3 3 7 -10 11 -17 4 -21 3 -13 -5z"/>
<path d="M6690 8943 l-29 -48 24 -13 c32 -16 51 -55 71 -139 19 -80 23 -144
13 -193 -27 -135 -18 -167 17 -55 14 46 18 93 19 200 0 178 -8 242 -37 272
-31 33 -44 29 -78 -24z"/>
<path d="M6470 8951 c19 -16 37 -27 39 -26 5 5 -52 54 -64 55 -5 0 6 -13 25
-29z"/>
<path d="M6425 8950 c-7 -11 13 -33 33 -38 9 -1 7 6 -4 23 -18 28 -20 29 -29
15z"/>
<path d="M5360 8840 c0 -4 11 -15 23 -23 17 -11 24 -12 24 -3 0 7 -11 17 -24
23 -12 6 -23 8 -23 3z"/>
<path d="M5340 8805 c0 -9 6 -12 15 -9 8 4 15 7 15 9 0 2 -7 5 -15 9 -9 3 -15
0 -15 -9z"/>
<path d="M5161 8751 c-12 -8 -12 -12 -2 -25 17 -20 31 -20 31 -1 0 8 -5 15
-11 15 -5 0 -7 5 -4 10 8 12 4 12 -14 1z"/>
<path d="M6240 8638 c-1 -26 23 -107 31 -102 16 9 10 61 -11 85 -10 13 -19 21
-20 17z"/>
<path d="M6446 8551 c-14 -28 -26 -55 -26 -60 0 -13 56 -71 69 -71 22 0 41 13
41 29 0 9 5 22 11 28 15 15 4 41 -36 86 l-34 39 -25 -51z"/>
<path d="M5010 7996 c0 -2 7 -7 16 -10 8 -3 12 -2 9 4 -6 10 -25 14 -25 6z"/>
<path d="M5073 7955 c-10 -11 -7 -20 17 -45 15 -17 31 -44 35 -60 4 -17 11
-30 16 -30 6 0 7 -4 4 -10 -3 -5 2 -10 11 -10 10 0 14 -3 11 -7 -4 -3 12 -19
35 -35 24 -15 43 -32 43 -37 0 -13 53 -71 65 -71 5 0 7 -6 4 -14 -3 -8 2 -17
13 -20 10 -4 29 -22 43 -40 33 -45 60 -63 58 -39 -3 34 2 54 11 48 6 -3 8 6 5
20 -2 14 0 25 5 25 22 0 -2 77 -27 85 -10 3 -26 23 -36 45 -11 22 -23 40 -29
40 -5 0 -33 25 -62 55 -28 30 -60 55 -69 55 -9 0 -14 5 -11 10 3 6 1 10 -4 10
-6 0 -11 -4 -11 -10 0 -5 -4 -10 -10 -10 -5 0 -6 8 -3 17 5 12 2 15 -9 10 -9
-3 -33 -1 -53 6 -30 9 -34 12 -19 18 18 7 18 8 -1 8 -11 0 -25 -6 -32 -14z"/>
<path d="M5138 7953 c7 -3 16 -2 19 1 4 3 -2 6 -13 5 -11 0 -14 -3 -6 -6z"/>
<path d="M4870 7863 c0 -10 4 -14 8 -8 4 6 11 13 16 18 5 4 2 7 -7 7 -10 0
-17 -8 -17 -17z"/>
<path d="M6122 7385 c0 -16 2 -22 5 -12 2 9 2 23 0 30 -3 6 -5 -1 -5 -18z"/>
<path d="M5480 7229 c0 -15 33 -69 42 -69 4 0 8 5 8 10 0 6 -5 10 -12 10 -9 0
-9 3 0 12 17 17 15 39 -3 32 -8 -4 -15 -1 -15 5 0 6 -4 11 -10 11 -5 0 -10 -5
-10 -11z"/>
<path d="M5501 7128 c0 -13 3 -17 6 -10 2 6 10 9 16 5 7 -4 6 1 -2 10 -18 22
-21 21 -20 -5z"/>
<path d="M4400 6462 c0 -4 9 -13 20 -20 19 -12 20 -11 8 8 -13 20 -28 27 -28
12z"/>
<path d="M4275 6441 c-6 -11 9 -23 19 -14 9 9 7 23 -3 23 -6 0 -12 -4 -16 -9z"/>
<path d="M4465 6420 c-3 -5 -1 -10 4 -10 6 0 11 5 11 10 0 6 -2 10 -4 10 -3 0
-8 -4 -11 -10z"/>
<path d="M4090 6265 c0 -8 5 -15 10 -15 6 0 10 7 10 15 0 8 -4 15 -10 15 -5 0
-10 -7 -10 -15z"/>
<path d="M4145 6129 c-10 -15 3 -25 16 -12 7 7 7 13 1 17 -6 3 -14 1 -17 -5z"/>
<path d="M4210 6050 c-8 -5 -12 -11 -9 -14 7 -8 49 5 49 15 0 12 -21 11 -40
-1z"/>
<path d="M4140 6031 c0 -6 5 -13 10 -16 6 -3 10 1 10 9 0 9 -4 16 -10 16 -5 0
-10 -4 -10 -9z"/>
<path d="M5590 5880 c-9 -6 -10 -10 -3 -10 6 0 15 5 18 10 8 12 4 12 -15 0z"/>
<path d="M5000 4329 c0 -5 5 -7 10 -4 6 3 10 8 10 11 0 2 -4 4 -10 4 -5 0 -10
-5 -10 -11z"/>
<path d="M3550 8570 c-13 -8 -13 -10 2 -10 9 0 20 5 23 10 8 13 -5 13 -25 0z"/>
<path d="M3449 8264 c-12 -14 -11 -16 5 -13 11 2 21 10 24 17 5 17 -13 15 -29
-4z"/>
<path d="M3100 8036 c8 -8 26 -17 40 -20 24 -7 24 -6 6 8 -10 9 -23 13 -27 10
-5 -3 -9 0 -9 5 0 6 -5 11 -12 11 -8 0 -8 -4 2 -14z"/>
<path d="M3152 7980 c0 -14 2 -19 5 -12 2 6 2 18 0 25 -3 6 -5 1 -5 -13z"/>
<path d="M3320 7620 c0 -5 5 -10 11 -10 5 0 7 5 4 10 -3 6 -8 10 -11 10 -2 0
-4 -4 -4 -10z"/>
<path d="M3348 7593 c7 -3 16 -2 19 1 4 3 -2 6 -13 5 -11 0 -14 -3 -6 -6z"/>
<path d="M3373 7574 c-3 -8 -1 -20 6 -27 8 -8 11 -7 11 6 0 9 8 21 18 26 15 9
14 10 -6 11 -12 0 -25 -7 -29 -16z"/>
<path d="M3490 7399 c0 -5 5 -7 10 -4 6 3 10 8 10 11 0 2 -4 4 -10 4 -5 0 -10
-5 -10 -11z"/>
<path d="M3521 4394 c0 -11 3 -14 6 -6 3 7 2 16 -1 19 -3 4 -6 -2 -5 -13z"/>
<path d="M3590 4401 c0 -6 4 -12 8 -15 5 -3 9 1 9 9 0 8 -4 15 -9 15 -4 0 -8
-4 -8 -9z"/>
<path d="M2940 4370 c-13 -8 -12 -10 3 -10 9 0 17 5 17 10 0 12 -1 12 -20 0z"/>
<path d="M3050 4300 c0 -5 5 -10 10 -10 6 0 10 5 10 10 0 6 -4 10 -10 10 -5 0
-10 -4 -10 -10z"/>
<path d="M3410 4300 c0 -5 5 -10 10 -10 6 0 10 5 10 10 0 6 -4 10 -10 10 -5 0
-10 -4 -10 -10z"/>
<path d="M3610 4246 c0 -9 5 -16 10 -16 6 0 10 4 10 9 0 6 -4 13 -10 16 -5 3
-10 -1 -10 -9z"/>
<path d="M3585 4220 c-3 -5 -1 -10 4 -10 6 0 11 5 11 10 0 6 -2 10 -4 10 -3 0
-8 -4 -11 -10z"/>
<path d="M3281 4184 c0 -11 3 -14 6 -6 3 7 2 16 -1 19 -3 4 -6 -2 -5 -13z"/>
<path d="M3550 4190 c0 -5 5 -10 10 -10 6 0 10 5 10 10 0 6 -4 10 -10 10 -5 0
-10 -4 -10 -10z"/>
<path d="M3350 4030 c0 -5 5 -10 11 -10 5 0 7 5 4 10 -3 6 -8 10 -11 10 -2 0
-4 -4 -4 -10z"/>
<path d="M2974 3636 c-10 -8 -17 -16 -14 -19 3 -2 14 4 24 14 23 22 18 25 -10
5z"/>
</g>
</svg>
